HIERARCHY
ROOT Hips
{
	OFFSET 0.00000 0.00000 0.00000
	CHANNELS 6 Xposition Yposition Zposition Zrotation Yrotation Xrotation 
	JOINT LHipJoint
	{
		OFFSET 0 0 0
		CHANNELS 3 Zrotation Yrotation Xrotation
		JOINT LeftUpLeg
		{
			OFFSET 1.70593 -1.62653 0.87602
			CHANNELS 3 Zrotation Yrotation Xrotation
			JOINT LeftLeg
			{
				OFFSET 2.32330 -6.38322 0.00000
				CHANNELS 3 Zrotation Yrotation Xrotation
				JOINT LeftFoot
				{
					OFFSET 2.45016 -6.73177 0.00000
					CHANNELS 3 Zrotation Yrotation Xrotation
					JOINT LeftToeBase
					{
						OFFSET 0.13029 -0.35798 1.96980
						CHANNELS 3 Zrotation Yrotation Xrotation
						End Site
						{
							OFFSET 0.00000 -0.00000 1.01270
						}
					}
				}
			}
		}
	}
	JOINT RHipJoint
	{
		OFFSET 0 0 0
		CHANNELS 3 Zrotation Yrotation Xrotation
		JOINT RightUpLeg
		{
			OFFSET -1.80599 -1.62652 0.87602
			CHANNELS 3 Zrotation Yrotation Xrotation
			JOINT RightLeg
			{
				OFFSET -2.45375 -6.74162 0.00000
				CHANNELS 3 Zrotation Yrotation Xrotation
				JOINT RightFoot
				{
					OFFSET -2.45828 -6.75406 0.00000
					CHANNELS 3 Zrotation Yrotation Xrotation
					JOINT RightToeBase
					{
						OFFSET -0.13801 -0.37917 1.88456
						CHANNELS 3 Zrotation Yrotation Xrotation
						End Site
						{
							OFFSET -0.00000 -0.00000 0.97281
						}
					}
				}
			}
		}
	}
	JOINT LowerBack
	{
		OFFSET 0 0 0
		CHANNELS 3 Zrotation Yrotation Xrotation
		JOINT Spine
		{
			OFFSET 0.01003 2.00576 -0.14267
			CHANNELS 3 Zrotation Yrotation Xrotation
			JOINT Spine1
			{
				OFFSET 0.00908 2.01191 0.01660
				CHANNELS 3 Zrotation Yrotation Xrotation
				JOINT Neck
				{
					OFFSET 0 0 0
					CHANNELS 3 Zrotation Yrotation Xrotation
					JOINT Neck1
					{
						OFFSET -0.05849 1.60301 0.18934
						CHANNELS 3 Zrotation Yrotation Xrotation
						JOINT Head
						{
							OFFSET 0.01775 1.59435 -0.07960
							CHANNELS 3 Zrotation Yrotation Xrotation
							End Site
							{
								OFFSET 0.01210 1.70732 -0.05248
							}
						}
					}
				}
				JOINT LeftShoulder
				{
					OFFSET 0 0 0
					CHANNELS 3 Zrotation Yrotation Xrotation
					JOINT LeftArm
					{
						OFFSET 3.15315 1.26460 0.30667
						CHANNELS 3 Zrotation Yrotation Xrotation
						JOINT LeftForeArm
						{
							OFFSET 4.97694 -0.00000 -0.00000
							CHANNELS 3 Zrotation Yrotation Xrotation
							JOINT LeftHand
							{
								OFFSET 3.14391 -0.00000 -0.00000
								CHANNELS 3 Zrotation Yrotation Xrotation
								JOINT LeftFingerBase
								{
									OFFSET 0 0 0
									CHANNELS 3 Zrotation Yrotation Xrotation
									JOINT LeftHandIndex1
									{
										OFFSET 0.59358 -0.00000 -0.00000
										CHANNELS 3 Zrotation Yrotation Xrotation
										End Site
										{
											OFFSET 0.47856 -0.00000 -0.00000
										}
									}
								}
								JOINT LThumb
								{
									OFFSET 0 0 0
									CHANNELS 3 Zrotation Yrotation Xrotation
									End Site
									{
										OFFSET 0.48587 -0.00000 0.48587
									}
								}
							}
						}
					}
				}
				JOINT RightShoulder
				{
					OFFSET 0 0 0
					CHANNELS 3 Zrotation Yrotation Xrotation
					JOINT RightArm
					{
						OFFSET -3.25568 1.35581 0.18982
						CHANNELS 3 Zrotation Yrotation Xrotation
						JOINT RightForeArm
						{
							OFFSET -4.90473 -0.00000 0.00000
							CHANNELS 3 Zrotation Yrotation Xrotation
							JOINT RightHand
							{
								OFFSET -3.21621 0.00006 -0.00004
								CHANNELS 3 Zrotation Yrotation Xrotation
								JOINT RightFingerBase
								{
									OFFSET 0 0 0
									CHANNELS 3 Zrotation Yrotation Xrotation
									JOINT RightHandIndex1
									{
										OFFSET -0.62353 -0.00000 -0.00000
										CHANNELS 3 Zrotation Yrotation Xrotation
										End Site
										{
											OFFSET -0.50270 -0.00000 -0.00000
										}
									}
								}
								JOINT RThumb
								{
									OFFSET 0 0 0
									CHANNELS 3 Zrotation Yrotation Xrotation
									End Site
									{
										OFFSET -0.51038 -0.00000 0.51038
									}
								}
							}
						}
					}
				}
			}
		}
	}
}
MOTION
Frames: 5
Frame Time: .0083333
7.5173 15.8761 -3.8800 4.9778 5.9983 7.4796 0.0000 0.0000 0.0000 -25.8610 4.4434 18.3171 0.0000 0.0000 0.0000 -0.0902 -8.0073 -3.4600 0.0002 -0.0991 -0.2722 0.0000 0.0000 0.0000 7.6938 17.4407 -41.7024 -1.3194 -7.2751 20.5329 -0.9426 6.8360 -17.3289 -0.2414 3.1616 -8.7289 -5.7843 -0.5074 0.2750 0.6319 -0.7861 -3.3384 3.9242 -0.2089 -3.5239 -3.4729 -0.1945 -11.2214 0.6166 0.2279 9.6015 0.7706 0.0231 4.7123 0.0000 -0.0000 0.0000 -85.9769 -22.0317 37.6590 35.5409 -45.1945 -15.1959 -0.0000 0.0000 -28.7659 24.2921 -12.8772 -5.7440 -7.1250 0.0000 -0.0000 -2.0744 15.9055 1.4274 0.0000 -0.0000 0.0000 100.0208 -29.0240 -30.9512 -7.4553 12.6660 -0.8286 0.0000 0.0000 26.7997 -18.9134 -39.9502 12.4082 7.1250 -0.0000 -0.0000 24.9660 -70.0437 -15.2649
7.5143 15.8408 -3.6218 5.3833 5.6509 7.3974 0.0000 0.0000 0.0000 -26.1241 4.9264 19.2685 0.0000 0.0000 0.0000 -0.1084 -7.6797 -2.5286 0.0001 -0.0776 -0.2133 0.0000 0.0000 0.0000 7.4305 17.5471 -41.7670 -1.4549 -7.6240 21.5778 -0.8968 7.3349 -16.9304 -0.1659 2.6243 -7.2344 -6.0677 -0.3946 0.2353 0.6012 -0.6388 -3.2985 4.0467 -0.1300 -3.4758 -3.4060 -0.3587 -11.0568 -0.0078 0.0628 9.5163 0.5540 -0.0943 4.6634 -0.0000 0.0000 0.0000 -85.7920 -22.0121 38.0103 36.8253 -46.0724 -16.1141 -0.0000 0.0000 -28.9648 24.7891 -13.2405 -6.0382 -7.1250 0.0000 -0.0000 -1.7551 15.4545 1.2246 -0.0000 0.0000 0.0000 100.2620 -29.4324 -32.9011 -7.4360 12.6345 -0.8244 0.0000 0.0000 27.7633 -18.8901 -39.5811 12.2997 7.1250 -0.0000 -0.0000 24.4233 -69.7159 -14.7436
7.5141 15.7932 -3.3636 5.2813 5.4593 7.2368 0.0000 0.0000 0.0000 -25.8237 5.3525 20.3509 0.0000 0.0000 0.0000 -0.1235 -7.2284 -1.2889 0.0094 0.6263 1.7210 0.0000 0.0000 0.0000 7.7957 17.6283 -41.6473 -1.6047 -7.9890 22.6807 -0.8366 7.7249 -16.3977 -0.2417 3.1637 -8.7349 -5.7529 -0.3170 0.2571 0.7030 -0.5260 -3.2697 3.9720 -0.0821 -3.4705 -3.7085 -0.6060 -11.1102 0.0785 -0.2298 9.4639 0.6085 -0.2429 4.6618 0.0000 0.0000 0.0000 -85.4734 -21.7729 38.4522 38.2875 -47.0219 -17.1756 -0.0000 0.0000 -29.5203 25.4235 -13.5188 -6.3405 -7.1250 0.0000 -0.0000 -1.3394 15.0759 0.9452 0.0000 0.0000 0.0000 100.4203 -29.7978 -34.3876 -7.4204 12.6091 -0.8210 0.0000 0.0000 28.1972 -18.6188 -39.3691 12.0628 7.1250 -0.0000 -0.0000 24.4276 -69.4440 -14.5999
7.5137 15.7480 -3.1061 4.9187 5.4856 6.9767 0.0000 0.0000 0.0000 -25.2082 5.6232 21.5478 0.0000 -0.0000 -0.0000 -0.1210 -6.7116 -0.3990 0.0073 -0.5510 -1.5140 0.0000 0.0000 0.0000 8.4193 17.6931 -41.2391 -1.7558 -8.3378 23.7449 -0.7064 8.5482 -15.2456 -0.1438 2.4440 -6.7344 -5.0822 -0.3346 0.4640 0.8526 -0.5427 -3.3096 3.7524 -0.1026 -3.6271 -3.9028 -0.3531 -10.6378 0.3305 0.0853 8.9225 0.7396 -0.0722 4.4103 0.0000 -0.0000 0.0000 -85.2666 -21.3060 38.5477 39.7195 -47.9029 -18.2309 -0.0000 0.0000 -29.9889 26.1613 -13.7677 -6.6678 -7.1250 0.0000 -0.0000 -0.8541 14.7117 0.6093 0.0000 -0.0000 0.0000 100.4254 -30.3767 -34.5039 -7.4509 12.6589 -0.8276 0.0000 0.0000 27.4698 -17.9018 -39.4019 11.5875 7.1250 -0.0000 -0.0000 25.3250 -69.2436 -15.0481
7.5112 15.7130 -2.8423 4.7859 5.3938 6.8067 0.0000 0.0000 0.0000 -24.8639 5.9212 22.5781 0.0000 0.0000 0.0000 -0.1048 -5.9645 0.4182 0.1939 -2.8358 -7.8219 0.0000 0.0000 0.0000 9.1769 17.3384 -40.9142 -1.9098 -8.6755 24.7855 -0.4924 8.3195 -12.9457 -0.0643 1.6358 -4.5002 -4.6011 -0.3239 0.4007 0.8804 -0.5113 -3.2329 3.5079 -0.1053 -3.5150 -3.8175 -0.1148 -10.4670 0.2164 0.3926 8.4762 0.7102 0.0811 4.2388 0.0000 0.0000 0.0000 -85.0558 -20.8243 38.4446 41.2224 -48.7777 -19.3537 -0.0000 0.0000 -30.1790 26.7563 -14.1680 -7.0351 -7.1250 0.0000 -0.0000 -0.4820 14.1937 0.3491 0.0000 0.0000 0.0000 100.4150 -30.7475 -34.1627 -7.4862 12.7165 -0.8354 0.0000 0.0000 26.5149 -17.3813 -39.4708 11.2539 7.1250 -0.0000 -0.0000 26.0383 -69.1376 -15.4313
